<svg xmlns="http://www.w3.org/2000/svg" viewBox="0 0 1024 1024">
  <rect width="1024" height="1024" fill="#fff"/>
  <g fill="#000" fill-rule="evenodd">
    <path d="M176 332 C298 292 410 306 512 340 C626 378 724 382 848 344 L848 418 C724 456 626 452 512 414 C410 380 298 366 176 406 Z"/>
    <path d="M176 455 C296 418 412 432 512 466 C624 504 724 508 848 470 L848 544 C724 582 624 578 512 540 C412 506 296 492 176 529 Z"/>
    <path d="M176 578 C298 538 410 552 512 586 C626 624 724 628 848 590 L848 664 C724 702 626 698 512 660 C410 626 298 612 176 652 Z"/>
  </g>
</svg>
